<?xml version="1.0" encoding="iso-8859-1"?>
<!-- Generator: Adobe Illustrator 18.0.0, SVG Export Plug-In . SVG Version: 6.00 Build 0)  -->
<!DOCTYPE svg PUBLIC "-//W3C//DTD SVG 1.1//EN" "http://www.w3.org/Graphics/SVG/1.1/DTD/svg11.dtd">
<svg version="1.1" id="Capa_1" xmlns="http://www.w3.org/2000/svg" xmlns:xlink="http://www.w3.org/1999/xlink" x="0px" y="0px"
	 viewBox="0 0 32 24" style="enable-background:new 0 0 32 24;" xml:space="preserve">
<g id="_x37__18_">
	<g>
		<path style="fill-rule:evenodd;clip-rule:evenodd;" d="M28,0H4C1.791,0,0,1.791,0,4v16c0,2.209,1.791,4,4,4h24
			c2.209,0,4-1.791,4-4V4C32,1.791,30.209,0,28,0z M29,2L16,12L3,2H29z M2,20L2,4l9,7l-8.905,9.578C2.039,20.394,2,20.203,2,20z
			 M3.555,21.947l9.025-9.616L16,14.915l3.273-2.601l9.172,9.632C28.301,21.979,3.699,21.979,3.555,21.947z M29.905,20.579L21,11
			l9-7l0,16C30,20.203,29.961,20.394,29.905,20.579z"/>
	</g>
</g>
<g>
</g>
<g>
</g>
<g>
</g>
<g>
</g>
<g>
</g>
<g>
</g>
<g>
</g>
<g>
</g>
<g>
</g>
<g>
</g>
<g>
</g>
<g>
</g>
<g>
</g>
<g>
</g>
<g>
</g>
</svg>
