<?xml version="1.0" encoding="iso-8859-1"?>
<!-- Generator: Adobe Illustrator 18.0.0, SVG Export Plug-In . SVG Version: 6.00 Build 0)  -->
<!DOCTYPE svg PUBLIC "-//W3C//DTD SVG 1.1//EN" "http://www.w3.org/Graphics/SVG/1.1/DTD/svg11.dtd">
<svg version="1.1" id="Capa_1" xmlns="http://www.w3.org/2000/svg" xmlns:xlink="http://www.w3.org/1999/xlink" x="0px" y="0px"
	 viewBox="0 0 31.088 31.02" style="enable-background:new 0 0 31.088 31.02;" xml:space="preserve">
<g id="_x34__17_">
	<g>
		<path style="fill-rule:evenodd;clip-rule:evenodd;" d="M30.161,3.464l-2.878-2.87h0c-0.795-0.792-2.083-0.792-2.878,0l-4.317,5.74
			c-0.66,0.972-0.795,2.077,0,2.87l1.761,1.756c-1.306,1.75-2.874,3.659-4.639,5.419c-1.995,1.99-4.216,3.8-6.212,5.285
			l-1.702-1.698c0,0,0,0,0,0c-0.795-0.793-1.903-0.658-2.878,0l-5.756,4.305c-0.965,0.665-0.795,2.078,0,2.87l2.878,2.87
			c1.589,1.585,3.657,1.077,5.756,0c0,0,6.353-3.557,11.792-8.981c5.116-5.102,9.073-11.827,9.073-11.827
			C30.986,6.942,31.75,5.05,30.161,3.464z M28.722,7.77c-1.7,3.229-5.474,8.201-8.634,11.48c-3.643,3.941-12.232,9.328-12.232,9.328
			c-0.663,0.347-2.503,0.374-3.009-0.131l-1.831-1.826c-0.378-0.632-0.548-1.365,0-1.826l3.663-2.74c0.62-0.419,1.326-0.504,1.831,0
			l2.257,2.25c0.532-0.374,9.009-5.93,13.725-13.578l-2.312-2.305c-0.506-0.504-0.42-1.208,0-1.826l2.747-3.653
			c0.506-0.674,1.326-0.504,1.832,0l1.831,1.826C29.309,5.443,29.102,7.014,28.722,7.77z"/>
	</g>
</g>
<g>
</g>
<g>
</g>
<g>
</g>
<g>
</g>
<g>
</g>
<g>
</g>
<g>
</g>
<g>
</g>
<g>
</g>
<g>
</g>
<g>
</g>
<g>
</g>
<g>
</g>
<g>
</g>
<g>
</g>
</svg>
