<?xml version="1.0" encoding="iso-8859-1"?>
<!-- Generator: Adobe Illustrator 17.1.0, SVG Export Plug-In . SVG Version: 6.00 Build 0)  -->
<!DOCTYPE svg PUBLIC "-//W3C//DTD SVG 1.1//EN" "http://www.w3.org/Graphics/SVG/1.1/DTD/svg11.dtd">
<svg version="1.1" id="Capa_1" xmlns="http://www.w3.org/2000/svg" xmlns:xlink="http://www.w3.org/1999/xlink" x="0px" y="0px"
	 viewBox="0 0 100 100" style="enable-background:new 0 0 100 100;" xml:space="preserve">
<g>
	<path style="fill:#000100;" d="M94.004,3.609H6.759c-1.324,0-2.397,1.073-2.397,2.397v88.022c0,1.324,1.073,2.397,2.397,2.397
		h29.003v-0.021c1.309-0.015,2.312-0.748,2.358-1.988c0.119-3.223,0.035-6.453,0.035-9.569c-2.336,0.109-4.566,0.404-6.771,0.277
		c-4.863-0.28-8.6-2.355-10.538-7.117c-1.148-2.821-2.878-5.234-5.572-6.844c-0.503-0.301-0.943-0.744-1.328-1.194
		c-0.503-0.587-0.409-1.19,0.386-1.351c0.802-0.163,1.678-0.277,2.469-0.129c3.106,0.583,5.254,2.531,6.898,5.122
		c3.251,5.126,8.255,6.695,13.885,4.328c0.314-0.132,0.713-0.452,0.772-0.744c0.454-2.269,1.302-4.338,3.011-6.152
		c-1.9-0.352-3.66-0.611-5.386-1.011c-4.97-1.15-9.435-3.219-12.7-7.328c-2.664-3.352-3.882-7.276-4.442-11.452
		c-0.877-6.541-0.092-12.664,4.4-17.891c0.227-0.264,0.35-0.805,0.249-1.134c-1.125-3.676-0.953-7.321,0.162-10.956
		c0.585-1.909,0.748-2.004,2.696-1.738c0.119,0.016,0.235,0.046,0.353,0.066c3.905,0.646,7.266,2.537,10.577,4.567
		c0.445,0.273,1.123,0.443,1.612,0.324c7.908-1.919,15.801-1.911,23.708,0.007c0.459,0.111,1.072-0.047,1.511-0.277
		c1.8-0.941,3.523-2.035,5.346-2.927c2.121-1.037,4.355-1.817,6.76-1.774c0.421,0.008,1.072,0.41,1.213,0.782
		c1.447,3.834,1.752,7.741,0.599,11.731c-0.123,0.426,0.06,1.033,0.289,1.453c1.138,2.088,2.727,4.015,3.447,6.23
		c2.195,6.751,1.395,13.436-1.593,19.781c-2.738,5.816-7.816,8.763-13.827,10.283c-2.03,0.513-4.11,0.825-6.3,1.255
		c2.87,2.998,3.32,6.657,3.269,10.489c-0.053,3.953-0.039,7.907-0.041,11.861c-0.001,1.915,0.835,2.973,2.294,3.035
		C65.562,96.425,96.4,96.425,96.4,96.425V6.006C96.4,4.682,95.327,3.609,94.004,3.609z"/>
</g>
</svg>
