<?xml version="1.0" encoding="utf-8"?>
<!-- Generator: Adobe Illustrator 16.0.0, SVG Export Plug-In . SVG Version: 6.00 Build 0)  -->
<!DOCTYPE svg PUBLIC "-//W3C//DTD SVG 1.1//EN" "http://www.w3.org/Graphics/SVG/1.1/DTD/svg11.dtd">
<svg version="1.1" id="Layer_1" xmlns="http://www.w3.org/2000/svg" xmlns:xlink="http://www.w3.org/1999/xlink" x="0px" y="0px"
	 width="100px" height="100px" viewBox="0 0 100 100" enable-background="new 0 0 100 100" xml:space="preserve">
<g>
	<path d="M70.916,37.757H29.085c-2.114,0-3.835,1.721-3.835,3.834v2.332c0,2.113,1.721,3.834,3.835,3.834h41.831
		c2.114,0,3.834-1.721,3.834-3.834v-2.332C74.75,39.478,73.03,37.757,70.916,37.757z M72.75,43.923c0,1.012-0.822,1.834-1.834,1.834
		H29.085c-1.012,0-1.835-0.822-1.835-1.834v-2.332c0-1.012,0.823-1.834,1.835-1.834h41.831c1.012,0,1.834,0.822,1.834,1.834V43.923z
		"/>
	<path d="M70.916,49.569H29.085c-2.114,0-3.835,1.721-3.835,3.834v2.332c0,2.113,1.721,3.834,3.835,3.834h41.831
		c2.114,0,3.834-1.721,3.834-3.834v-2.332C74.75,51.29,73.03,49.569,70.916,49.569z M72.75,55.735c0,1.012-0.822,1.834-1.834,1.834
		H29.085c-1.012,0-1.835-0.822-1.835-1.834v-2.332c0-1.012,0.823-1.834,1.835-1.834h41.831c1.012,0,1.834,0.822,1.834,1.834V55.735z
		"/>
	<path d="M70.916,61.569H29.085c-2.114,0-3.835,1.721-3.835,3.834v2.332c0,2.113,1.721,3.834,3.835,3.834h41.831
		c2.114,0,3.834-1.721,3.834-3.834v-2.332C74.75,63.29,73.03,61.569,70.916,61.569z M72.75,67.735c0,1.012-0.822,1.834-1.834,1.834
		H29.085c-1.012,0-1.835-0.822-1.835-1.834v-2.332c0-1.012,0.823-1.834,1.835-1.834h41.831c1.012,0,1.834,0.822,1.834,1.834V67.735z
		"/>
</g>
</svg>
