<?xml version="1.0" encoding="utf-8"?>
<!-- Generator: Adobe Illustrator 17.0.0, SVG Export Plug-In . SVG Version: 6.00 Build 0)  -->
<!DOCTYPE svg PUBLIC "-//W3C//DTD SVG 1.1//EN" "http://www.w3.org/Graphics/SVG/1.1/DTD/svg11.dtd">
<svg version="1.1" id="Layer_1" xmlns="http://www.w3.org/2000/svg" xmlns:xlink="http://www.w3.org/1999/xlink" x="0px" y="0px"
	 width="32px" height="32px" viewBox="0 0 32 32" enable-background="new 0 0 32 32" xml:space="preserve">
<g>
	<path d="M20.494,26.165c0-2.852-2.312-5.164-5.164-5.164h-1.333c-0.692,0-1.253-0.561-1.253-1.253c0-0.257,0.104-0.503,0.287-0.682
		c0.775-0.756,1.427-1.77,1.899-2.863c0.096,0.071,0.199,0.122,0.315,0.122c0.749,0,1.628-1.654,1.628-2.782
		c0-1.128-0.103-2.042-0.853-2.042c-0.089,0-0.183,0.015-0.279,0.039c-0.053-3.058-0.826-6.873-5.495-6.873
		c-4.872,0-5.441,3.808-5.495,6.863c-0.068-0.013-0.138-0.028-0.201-0.028c-0.749,0-0.853,0.914-0.853,2.042
		c0,1.128,0.879,2.782,1.628,2.782c0.092,0,0.178-0.026,0.258-0.072c0.47,1.075,1.114,2.07,1.878,2.814
		c0.184,0.179,0.287,0.425,0.287,0.682c0,0.692-0.561,1.253-1.253,1.253H5.164C2.312,21.001,0,23.313,0,26.165v1.431
		c0,0.901,0.73,1.631,1.631,1.631h17.233c0.901,0,1.631-0.73,1.631-1.631V26.165z"/>
	<path d="M16.34,6.833c0.417,0.923,0.715,2.059,0.839,3.465c0.309,0.19,0.54,0.498,0.73,0.869h12.883
		c0.667,0,1.208-0.541,1.208-1.208V8.042c0-0.667-0.541-1.208-1.208-1.208H16.34z"/>
	<path d="M15.857,17.731c-0.034,0.064-0.075,0.12-0.11,0.183v1.148h15.045c0.667,0,1.208-0.541,1.208-1.208v-1.917
		c0-0.667-0.541-1.208-1.208-1.208H18.204C17.863,16.02,17.02,17.37,15.857,17.731z"/>
	<path d="M21.994,26.165v0.794h8.798c0.667,0,1.208-0.541,1.208-1.208v-1.917c0-0.667-0.541-1.208-1.208-1.208h-9.825
		C21.614,23.652,21.994,24.863,21.994,26.165z"/>
</g>
</svg>
